  0
SECTION
  2
HEADER
  9
$ACADVER
  1
AC1014
  9
$HANDSEED
  5
FFFF
  9
$MEASUREMENT
 70
     1
  0
ENDSEC
  0
SECTION
  2
TABLES
  0
TABLE
  2
VPORT
  5
8
330
0
100
AcDbSymbolTable
 70
     4
  0
VPORT
  5
2E
330
8
100
AcDbSymbolTableRecord
100
AcDbViewportTableRecord
  2
*ACTIVE
 70
     0
 10
0.0
 20
0.0
 11
1.0
 21
1.0
 12
210.0
 22
148.5
 13
0.0
 23
0.0
 14
10.0
 24
10.0
 15
10.0
 25
10.0
 16
0.0
 26
0.0
 36
1.0
 17
0.0
 27
0.0
 37
0.0
 40
341.0
 41
1.24
 42
50.0
 43
0.0
 44
0.0
 50
0.0
 51
0.0
 71
     0
 72
   100
 73
     1
 74
     3
 75
     0
 76
     0
 77
     0
 78
     0
  0
ENDTAB
  0
TABLE
  2
LTYPE
  5
5
330
0
100
AcDbSymbolTable
 70
     1
  0
LTYPE
  5
14
330
5
100
AcDbSymbolTableRecord
100
AcDbLinetypeTableRecord
  2
BYBLOCK
 70
     0
  3

 72
    65
 73
     0
 40
0.0
  0
LTYPE
  5
15
330
5
100
AcDbSymbolTableRecord
100
AcDbLinetypeTableRecord
  2
BYLAYER
 70
     0
  3

 72
    65
 73
     0
 40
0.0
  0
LTYPE
  5
16
330
5
100
AcDbSymbolTableRecord
100
AcDbLinetypeTableRecord
  2
CONTINUOUS
 70
     0
  3
Solid line
 72
    65
 73
     0
 40
0.0
  0
ENDTAB
  0
TABLE
  2
LAYER
  5
2
100
AcDbSymbolTable
 70
1
  0
LAYER
  5
50
100
AcDbSymbolTableRecord
100
AcDbLayerTableRecord
  2
0
 70
0
  6
CONTINUOUS
  0
ENDTAB
  0
TABLE
  2
STYLE
  5
3
330
0
100
AcDbSymbolTable
 70
     1
  0
STYLE
  5
11
330
3
100
AcDbSymbolTableRecord
100
AcDbTextStyleTableRecord
  2
STANDARD
 70
     0
 40
0.0
 41
1.0
 50
0.0
 71
     0
 42
2.5
  3
txt
  4

  0
ENDTAB
  0
TABLE
  2
VIEW
  5
6
330
0
100
AcDbSymbolTable
 70
     0
  0
ENDTAB
  0
TABLE
  2
UCS
  5
7
330
0
100
AcDbSymbolTable
 70
     0
  0
ENDTAB
  0
TABLE
  2
APPID
  5
9
330
0
100
AcDbSymbolTable
 70
     2
  0
APPID
  5
12
330
9
100
AcDbSymbolTableRecord
100
AcDbRegAppTableRecord
  2
ACAD
 70
     0
  0
ENDTAB
  0
TABLE
  2
DIMSTYLE
  5
A
330
0
100
AcDbSymbolTable
 70
     1
  0
DIMSTYLE
105
27
330
A
100
AcDbSymbolTableRecord
100
AcDbDimStyleTableRecord
  2
ISO-25
 70
     0
  3

  4

  5

  6

  7

 40
1.0
 41
2.5
 42
0.625
 43
3.75
 44
1.25
 45
0.0
 46
0.0
 47
0.0
 48
0.0
140
2.5
141
2.5
142
0.0
143
0.03937007874016
144
1.0
145
0.0
146
1.0
147
0.625
 71
     0
 72
     0
 73
     0
 74
     0
 75
     0
 76
     0
 77
     1
 78
     8
170
     0
171
     3
172
     1
173
     0
174
     0
175
     0
176
     0
177
     0
178
     0
270
     2
271
     2
272
     2
273
     2
274
     3
340
11
275
     0
280
     0
281
     0
282
     0
283
     0
284
     8
285
     0
286
     0
287
     3
288
     0
  0
ENDTAB
  0
TABLE
  2
BLOCK_RECORD
  5
1
330
0
100
AcDbSymbolTable
 70
     1
  0
BLOCK_RECORD
  5
1F
330
1
100
AcDbSymbolTableRecord
100
AcDbBlockTableRecord
  2
*MODEL_SPACE
  0
BLOCK_RECORD
  5
1B
330
1
100
AcDbSymbolTableRecord
100
AcDbBlockTableRecord
  2
*PAPER_SPACE
  0
ENDTAB
  0
ENDSEC
  0
SECTION
  2
BLOCKS
  0
BLOCK
  5
20
330
1F
100
AcDbEntity
  8
0
100
AcDbBlockBegin
  2
*MODEL_SPACE
 70
     0
 10
0.0
 20
0.0
 30
0.0
  3
*MODEL_SPACE
  1

  0
ENDBLK
  5
21
330
1F
100
AcDbEntity
  8
0
100
AcDbBlockEnd
  0
BLOCK
  5
1C
330
1B
100
AcDbEntity
 67
     1
  8
0
100
AcDbBlockBegin
  2
*PAPER_SPACE
  1

  0
ENDBLK
  5
1D
330
1B
100
AcDbEntity
 67
     1
  8
0
100
AcDbBlockEnd
  0
ENDSEC
  0
SECTION
  2
ENTITIES
  0
LWPOLYLINE
  5
100
100
AcDbEntity
  8
0
 62
7
100
AcDbPolyline
 90
2
 70
1
 10
140.141111
 20
0.141103
 30
0.0
 10
20.141111
 20
0.141103
 30
0.0
  0
LWPOLYLINE
  5
101
100
AcDbEntity
  8
0
 62
7
100
AcDbPolyline
 90
2
 70
1
 10
140.141111
 20
0.141103
 30
0.0
 10
140.141111
 20
0.141103
 30
0.0
  0
LWPOLYLINE
  5
102
100
AcDbEntity
  8
0
 62
7
100
AcDbPolyline
 90
6
 70
1
 10
39.671978
 20
97.728687
 30
0.0
 10
38.282662
 20
99.167369
 30
0.0
 10
41.879362
 20
102.640661
 30
0.0
 10
43.268677
 20
101.201979
 30
0.0
 10
39.671978
 20
97.728687
 30
0.0
 10
39.671978
 20
97.728687
 30
0.0
  0
LWPOLYLINE
  5
103
100
AcDbEntity
  8
0
 62
7
100
AcDbPolyline
 90
6
 70
1
 10
40.366637
 20
97.009348
 30
0.0
 10
43.963336
 20
100.482640
 30
0.0
 10
45.352651
 20
99.043961
 30
0.0
 10
41.755955
 20
95.570669
 30
0.0
 10
40.366637
 20
97.009348
 30
0.0
 10
40.366637
 20
97.009348
 30
0.0
  0
LWPOLYLINE
  5
104
100
AcDbEntity
  8
0
 62
7
100
AcDbPolyline
 90
6
 70
1
 10
117.728690
 20
100.610241
 30
0.0
 10
119.167368
 20
101.999559
 30
0.0
 10
122.640660
 20
98.402860
 30
0.0
 10
121.201982
 20
97.013542
 30
0.0
 10
117.728690
 20
100.610241
 30
0.0
 10
117.728690
 20
100.610241
 30
0.0
  0
LWPOLYLINE
  5
105
100
AcDbEntity
  8
0
 62
7
100
AcDbPolyline
 90
6
 70
1
 10
117.009351
 20
99.915585
 30
0.0
 10
120.482643
 20
96.318886
 30
0.0
 10
119.043961
 20
94.929568
 30
0.0
 10
115.570669
 20
98.526267
 30
0.0
 10
117.009351
 20
99.915585
 30
0.0
 10
117.009351
 20
99.915585
 30
0.0
  0
LWPOLYLINE
  5
106
100
AcDbEntity
  8
0
 62
7
100
AcDbPolyline
 90
6
 70
1
 10
78.103544
 20
115.335538
 30
0.0
 10
78.138449
 20
117.335235
 30
0.0
 10
83.137689
 20
117.247972
 30
0.0
 10
83.102783
 20
115.248278
 30
0.0
 10
78.103544
 20
115.335538
 30
0.0
 10
78.103544
 20
115.335538
 30
0.0
  0
LWPOLYLINE
  5
107
100
AcDbEntity
  8
0
 62
7
100
AcDbPolyline
 90
6
 70
1
 10
78.086091
 20
114.335693
 30
0.0
 10
83.085331
 20
114.248430
 30
0.0
 10
83.050425
 20
112.248736
 30
0.0
 10
78.051186
 20
112.335996
 30
0.0
 10
78.086091
 20
114.335693
 30
0.0
 10
78.086091
 20
114.335693
 30
0.0
  0
LWPOLYLINE
  5
108
100
AcDbEntity
  8
0
 62
7
100
AcDbPolyline
 90
6
 70
1
 10
42.553532
 20
19.671981
 30
0.0
 10
41.114853
 20
18.282658
 30
0.0
 10
37.641561
 20
21.879354
 30
0.0
 10
39.080240
 20
23.268678
 30
0.0
 10
42.553532
 20
19.671981
 30
0.0
 10
42.553532
 20
19.671981
 30
0.0
  0
LWPOLYLINE
  5
109
100
AcDbEntity
  8
0
 62
7
100
AcDbPolyline
 90
6
 70
1
 10
43.272874
 20
20.366643
 30
0.0
 10
39.799582
 20
23.963339
 30
0.0
 10
41.238261
 20
25.352652
 30
0.0
 10
44.711553
 20
21.755938
 30
0.0
 10
43.272874
 20
20.366643
 30
0.0
 10
43.272874
 20
20.366643
 30
0.0
  0
LWPOLYLINE
  5
10a
100
AcDbEntity
  8
0
 62
7
100
AcDbPolyline
 90
6
 70
1
 10
24.946681
 20
58.103544
 30
0.0
 10
22.946986
 20
58.138447
 30
0.0
 10
23.034248
 20
63.137686
 30
0.0
 10
25.033944
 20
63.102781
 30
0.0
 10
24.946681
 20
58.103544
 30
0.0
 10
24.946681
 20
58.103544
 30
0.0
  0
LWPOLYLINE
  5
10b
100
AcDbEntity
  8
0
 62
7
100
AcDbPolyline
 90
6
 70
1
 10
25.946529
 20
58.086092
 30
0.0
 10
26.033791
 20
63.085328
 30
0.0
 10
28.033487
 20
63.050426
 30
0.0
 10
27.946225
 20
58.051186
 30
0.0
 10
25.946529
 20
58.086092
 30
0.0
 10
25.946529
 20
58.086092
 30
0.0
  0
LWPOLYLINE
  5
10c
100
AcDbEntity
  8
0
 62
7
100
AcDbPolyline
 90
6
 70
1
 10
82.178678
 20
4.946670
 30
0.0
 10
82.143772
 20
2.946984
 30
0.0
 10
77.144533
 20
3.034247
 30
0.0
 10
77.179438
 20
5.033933
 30
0.0
 10
82.178678
 20
4.946670
 30
0.0
 10
82.178678
 20
4.946670
 30
0.0
  0
LWPOLYLINE
  5
10d
100
AcDbEntity
  8
0
 62
7
100
AcDbPolyline
 90
6
 70
1
 10
82.196130
 20
5.946527
 30
0.0
 10
77.196891
 20
6.033790
 30
0.0
 10
77.231796
 20
8.033475
 30
0.0
 10
82.231036
 20
7.946212
 30
0.0
 10
82.196130
 20
5.946527
 30
0.0
 10
82.196130
 20
5.946527
 30
0.0
  0
LWPOLYLINE
  5
10e
100
AcDbEntity
  8
0
 62
7
100
AcDbPolyline
 90
6
 70
1
 10
120.610244
 20
22.553526
 30
0.0
 10
121.999562
 20
21.114842
 30
0.0
 10
118.402862
 20
17.641562
 30
0.0
 10
117.013544
 20
19.080246
 30
0.0
 10
120.610244
 20
22.553526
 30
0.0
 10
120.610244
 20
22.553526
 30
0.0
  0
LWPOLYLINE
  5
10f
100
AcDbEntity
  8
0
 62
7
100
AcDbPolyline
 90
6
 70
1
 10
119.915585
 20
23.272883
 30
0.0
 10
116.318885
 20
19.799574
 30
0.0
 10
114.929570
 20
21.238258
 30
0.0
 10
118.526270
 20
24.711539
 30
0.0
 10
119.915585
 20
23.272883
 30
0.0
 10
119.915585
 20
23.272883
 30
0.0
  0
LWPOLYLINE
  5
110
100
AcDbEntity
  8
0
 62
7
100
AcDbPolyline
 90
6
 70
1
 10
135.335541
 20
62.178675
 30
0.0
 10
137.335235
 20
62.143770
 30
0.0
 10
137.247975
 20
57.144533
 30
0.0
 10
135.248278
 20
57.179439
 30
0.0
 10
135.335541
 20
62.178675
 30
0.0
 10
135.335541
 20
62.178675
 30
0.0
  0
SPLINE
  5
111
100
AcDbEntity
  8
0
 62
7
100
AcDbSpline
 70
0
 71
3
 72
34
 73
30
 74
28
 40
0.000000
 40
0.000000
 40
0.000000
 40
0.000000
 40
5.235500
 40
10.427675
 40
15.663175
 40
20.898676
 40
26.090850
 40
31.326351
 40
52.067089
 40
90.585602
 40
111.326340
 40
121.783523
 40
131.930549
 40
142.387731
 40
173.498842
 40
231.276620
 40
262.387731
 40
272.844913
 40
282.991938
 40
293.449121
 40
314.189859
 40
352.708372
 40
373.449110
 40
378.684611
 40
383.876785
 40
389.112285
 40
394.347786
 40
399.539960
 40
404.775461
 40
404.775461
 40
404.775461
 40
404.775461
 10
20.141111
 20
0.141103
 30
0.0
 10
18.390864
 20
0.274427
 30
0.0
 10
14.904853
 20
0.539972
 30
0.0
 10
10.027755
 20
2.638490
 30
0.0
 10
5.831971
 20
5.831115
 30
0.0
 10
2.635415
 20
10.028109
 30
0.0
 10
0.551355
 20
14.904323
 30
0.0
 10
-0.350291
 20
25.328732
 30
0.0
 10
0.403815
 20
46.788054
 30
0.0
 10
0.734891
 20
73.505589
 30
0.0
 10
-0.834855
 20
96.670534
 30
0.0
 10
1.854904
 20
110.569150
 30
0.0
 10
9.708425
 20
118.447849
 30
0.0
 10
27.096715
 20
121.644287
 30
0.0
 10
60.080213
 20
119.227493
 30
0.0
 10
100.202009
 20
119.227493
 30
0.0
 10
133.185507
 20
121.644288
 30
0.0
 10
150.573797
 20
118.447849
 30
0.0
 10
158.427317
 20
110.569150
 30
0.0
 10
161.117076
 20
96.670534
 30
0.0
 10
159.547331
 20
73.505589
 30
0.0
 10
159.878407
 20
46.788054
 30
0.0
 10
160.632512
 20
25.328732
 30
0.0
 10
159.730866
 20
14.904323
 30
0.0
 10
157.646807
 20
10.028109
 30
0.0
 10
154.450251
 20
5.831115
 30
0.0
 10
150.254467
 20
2.638490
 30
0.0
 10
145.377369
 20
0.539972
 30
0.0
 10
141.891358
 20
0.274427
 30
0.0
 10
140.141111
 20
0.141103
 30
0.0
 11
20.141111
 21
0.141103
 31
0.0
 11
14.950644
 21
0.826314
 31
0.0
 11
10.153700
 21
2.813274
 31
0.0
 11
5.998970
 21
5.998973
 31
0.0
 11
2.813274
 21
10.153706
 31
0.0
 11
0.826318
 21
14.950651
 31
0.0
 11
0.141111
 21
20.141119
 31
0.0
 11
0.141111
 21
40.881857
 31
0.0
 11
0.141111
 21
79.400371
 31
0.0
 11
0.141111
 21
100.141109
 31
0.0
 11
2.871698
 21
110.235491
 31
0.0
 11
10.046728
 21
117.410522
 31
0.0
 11
20.141111
 21
120.141108
 31
0.0
 11
51.252222
 21
120.141108
 31
0.0
 11
109.030000
 21
120.141108
 31
0.0
 11
140.141111
 21
120.141108
 31
0.0
 11
150.235493
 21
117.410522
 31
0.0
 11
157.410524
 21
110.235491
 31
0.0
 11
160.141110
 21
100.141109
 31
0.0
 11
160.141110
 21
79.400371
 31
0.0
 11
160.141110
 21
40.881857
 31
0.0
 11
160.141110
 21
20.141119
 31
0.0
 11
159.455903
 21
14.950651
 31
0.0
 11
157.468947
 21
10.153706
 31
0.0
 11
154.283252
 21
5.998973
 31
0.0
 11
150.128521
 21
2.813274
 31
0.0
 11
145.331578
 21
0.826314
 31
0.0
 11
140.141111
 21
0.141103
 31
0.0
  0
LWPOLYLINE
  5
112
100
AcDbEntity
  8
0
 62
7
100
AcDbPolyline
 90
6
 70
1
 10
134.335692
 20
62.196128
 30
0.0
 10
134.248432
 20
57.196888
 30
0.0
 10
132.248735
 20
57.231794
 30
0.0
 10
132.335998
 20
62.231033
 30
0.0
 10
134.335692
 20
62.196128
 30
0.0
 10
134.335692
 20
62.196128
 30
0.0
  0
ENDSEC
  0
SECTION
  2
OBJECTS
  0
DICTIONARY
  5
C
330
0
100
AcDbDictionary
  3
ACAD_GROUP
350
D
  3
ACAD_MLINESTYLE
350
17
  0
DICTIONARY
  5
D
330
C
100
AcDbDictionary
  0
DICTIONARY
  5
1A
330
C
100
AcDbDictionary
  0
DICTIONARY
  5
17
330
C
100
AcDbDictionary
  3
STANDARD
350
18
  0
DICTIONARY
  5
19
330
C
100
AcDbDictionary
  0
ENDSEC
  0
EOF
