0
SECTION
2
HEADER
9
$INSUNITS
70
4
9
$ACADVER
1
AC1014
9
$HANDSEED
5
FFFF
0
ENDSEC
0
SECTION
2
TABLES
0
TABLE
2
VPORT
5
8
100
AcDbSymbolTable
0
ENDTAB
0
TABLE
2
LTYPE
5
5
100
AcDbSymbolTable
0
LTYPE
5
14
100
AcDbSymbolTableRecord
100
AcDbLinetypeTableRecord
2
BYBLOCK
70
0
0
LTYPE
5
15
100
AcDbSymbolTableRecord
100
AcDbLinetypeTableRecord
2
BYLAYER
70
0
0
ENDTAB
0
TABLE
2
LAYER
5
2
100
AcDbSymbolTable
70
2
0
LAYER
5
50
100
AcDbSymbolTableRecord
100
AcDbLayerTableRecord
2
0
70
0
6
CONTINUOUS
0
ENDTAB
0
TABLE
2
STYLE
5
3
100
AcDbSymbolTable
70
1
0
STYLE
5
11
100
AcDbSymbolTableRecord
100
AcDbTextStyleTableRecord
2
STANDARD
70
0
0
ENDTAB
0
TABLE
2
VIEW
5
6
100
AcDbSymbolTable
70
0
0
ENDTAB
0
TABLE
2
UCS
5
7
100
AcDbSymbolTable
70
0
0
ENDTAB
0
TABLE
2
APPID
5
9
100
AcDbSymbolTable
70
2
0
APPID
5
12
100
AcDbSymbolTableRecord
100
AcDbRegAppTableRecord
2
ACAD
70
0
0
ENDTAB
0
TABLE
2
DIMSTYLE
5
A
100
AcDbSymbolTable
70
1
0
ENDTAB
0
TABLE
2
BLOCK_RECORD
5
1
100
AcDbSymbolTable
70
1
0
BLOCK_RECORD
5
1F
100
AcDbSymbolTableRecord
100
AcDbBlockTableRecord
2
*MODEL_SPACE
0
BLOCK_RECORD
5
1B
100
AcDbSymbolTableRecord
100
AcDbBlockTableRecord
2
*PAPER_SPACE
0
ENDTAB
0
ENDSEC
0
SECTION
2
BLOCKS
0
BLOCK
5
20
100
AcDbEntity
100
AcDbBlockBegin
2
*MODEL_SPACE
0
ENDBLK
5
21
100
AcDbEntity
100
AcDbBlockEnd
0
BLOCK
5
1C
100
AcDbEntity
100
AcDbBlockBegin
2
*PAPER_SPACE
0
ENDBLK
5
1D
100
AcDbEntity
100
AcDbBlockEnd
0
ENDSEC
0
SECTION
2
ENTITIES
0
LWPOLYLINE
5
100
100
AcDbEntity
8
0
100
AcDbPolyline
90
4
70
1
43
0.0
10
-67.003423191665931
20
7.1068630241903108
10
-72.002661667447882
20
7.1941250563767056
10
-72.037566480842571
20
5.1944296362661291
10
-67.03832800506062
20
5.1071676040797342
0
LWPOLYLINE
5
101
100
AcDbEntity
8
0
100
AcDbPolyline
90
4
70
1
43
0.0
10
-67.090685225152626
20
2.1076244739139227
10
-67.055780411757951
20
4.107319894024446
10
-72.055018887539916
20
4.1945819262108586
10
-72.089923700934605
20
2.1948865061003175
0
LWPOLYLINE
5
102
100
AcDbEntity
8
0
100
AcDbPolyline
90
4
70
1
43
0.0
10
-17.892375526086237
20
-52.90931477484736
10
-15.892680105975696
20
-52.944219588242028
10
-15.805418073789266
20
-47.944981112460063
10
-17.805113493899842
20
-47.910076299065381
0
LWPOLYLINE
5
103
100
AcDbEntity
8
0
100
AcDbPolyline
90
4
70
1
43
0.0
10
-108.26175031517677
20
-7.500450121784219
10
-111.85844931687001
20
-10.973741974079232
10
-110.46913255524959
20
-12.412421596194516
10
-106.87243355355635
20
-8.939129743899521
0
LWPOLYLINE
5
104
100
AcDbEntity
8
0
100
AcDbPolyline
90
4
70
1
43
0.0
10
-112.49954987821575
20
-88.261750315176769
10
-109.02625802592075
20
-91.858449316870008
10
-107.58757840380545
20
-90.469132555249587
10
-111.06087025610046
20
-86.872433553556348
0
LWPOLYLINE
5
105
100
AcDbEntity
8
0
100
AcDbPolyline
90
4
70
1
43
0.0
10
-35.211541588874304
20
-88.902850822927519
10
-33.822224827253905
20
-90.341530445042807
10
-30.225525825560631
20
-86.868238592747829
10
-31.614842587181045
20
-85.429558970632527
0
LWPOLYLINE
5
106
100
AcDbEntity
8
0
100
AcDbPolyline
90
4
70
1
43
0.0
10
-108.90285082292752
20
-84.788458411125717
10
-110.34153044504279
20
-86.177775172746109
10
-106.86823859274783
20
-89.774474174439391
10
-105.42955897063253
20
-88.38515741281897
0
LWPOLYLINE
5
107
100
AcDbEntity
8
0
100
AcDbPolyline
90
4
70
1
43
0.0
10
-72.996576808334254
20
-107.10686302419032
10
-67.997338332552303
20
-107.19412505637671
10
-67.962433519157614
20
-105.19442963626614
10
-72.961671994939564
20
-105.10716760407976
0
LWPOLYLINE
5
108
100
AcDbEntity
8
0
100
AcDbPolyline
90
4
70
1
43
0.0
10
-122.10762447391397
20
-47.09068522515259
10
-124.10731989402451
20
-47.055780411757915
10
-124.19458192621094
20
-52.055018887539873
10
-122.19488650610037
20
-52.089923700934563
0
LWPOLYLINE
5
109
100
AcDbEntity
8
0
100
AcDbPolyline
90
4
70
1
43
0.0
10
-104.78845841112572
20
-11.097149177072438
10
-106.17777517274611
20
-9.658469554957172
10
-109.7744741744394
20
-13.131761407252149
10
-108.38515741281897
20
-14.570441029367434
0
LWPOLYLINE
5
110
100
AcDbEntity
8
0
100
AcDbPolyline
90
4
70
1
43
0.0
10
-12.893136975809814
20
-52.996576808334055
10
-12.805874943623454
20
-47.997338332552097
10
-14.805570363733995
20
-47.962433519157408
10
-14.89283239592039
20
-52.961671994939373
0
LWPOLYLINE
5
111
100
AcDbEntity
8
0
100
AcDbPolyline
90
4
70
1
43
0.0
10
-127.1068630241904
20
-47.003423191665881
10
-127.19412505637676
20
-52.002661667447839
10
-125.19442963626622
20
-52.037566480842528
10
-125.10716760407982
20
-47.038328005060578
0
LWPOLYLINE
5
112
100
AcDbEntity
8
0
100
AcDbPolyline
90
4
70
1
43
0.0
10
-31.738249684823252
20
-92.49954987821576
10
-28.14155068313001
20
-89.026258025920754
10
-29.530867444750424
20
-87.587578403805452
10
-33.127566446443666
20
-91.060870256100458
0
LWPOLYLINE
5
113
100
AcDbEntity
8
0
100
AcDbPolyline
90
4
70
1
43
0.0
10
-72.909314774847559
20
-102.10762447391392
10
-72.94421958824222
20
-104.10731989402443
10
-67.944981112460269
20
-104.19458192621086
10
-67.91007629906558
20
-102.19488650610032
0
LWPOLYLINE
5
114
100
AcDbEntity
8
0
100
AcDbPolyline
90
4
70
1
43
0.0
10
-31.097149177072492
20
-15.211541588874269
10
-29.658469554957207
20
-13.822224827253873
10
-33.131761407252185
20
-10.225525825560595
10
-34.570441029367487
20
-11.614842587181009
0
LWPOLYLINE
5
115
100
AcDbEntity
8
0
100
AcDbPolyline
90
4
70
1
43
0.0
10
-27.500450121784255
20
-11.738249684823217
10
-30.973741974079267
20
-8.1415506831299744
10
-32.412421596194569
20
-9.5308674447503883
10
-28.939129743899557
20
-13.127566446443648
0
LWPOLYLINE
5
116
100
AcDbEntity
8
0
100
AcDbPolyline
90
8
70
1
43
0.0
10
-29.999999999999993
20
10.000000000000002
42
-0.41421356237309553
10
-10.000000000000002
20
-10
10
-10.000000000000009
20
-90
42
-0.41421356237309465
10
-30
20
-110
10
-150
20
-110
42
-0.41421356237309509
10
-170
20
-90
10
-170
20
-10.000000000000002
42
-0.41421356237309509
10
-150
20
10
0
ENDSEC
0
SECTION
2
OBJECTS
0
DICTIONARY
5
C
100
AcDbDictionary
3
ACAD_GROUP
350
D
3
ACAD_MLINESTYLE
350
17
0
DICTIONARY
5
D
100
AcDbDictionary
0
DICTIONARY
5
1A
330
C
100
AcDbDictionary
0
DICTIONARY
5
17
100
AcDbDictionary
0
ENDSEC
0
EOF
